<svg width="54" height="53" viewBox="0 0 54 53" fill="none" xmlns="http://www.w3.org/2000/svg">
<path d="M36.0343 4.24959L11.6896 16.5292L2.01074 11.8372L25.9264 0.201085C26.4626 -0.0670282 27.1061 -0.0670282 27.6691 0.201085L36.0343 4.24959Z" fill="url(#paint0_linear)"/>
<path d="M51.6116 11.8371L26.838 23.929L17.5613 19.4247L16.2207 18.7544L40.5922 6.47485L41.9327 7.14514L51.6116 11.8371Z" fill="url(#paint1_linear)"/>
<path d="M24.8541 27.4146L24.8272 52.8585L1.09926 40.6594C0.42898 40.3109 0 39.6138 0 38.8631V15.3228L10.0542 20.2024V28.782C10.0542 29.8813 10.9658 30.7929 12.0651 30.7929C13.1643 30.7929 14.0759 29.8813 14.0759 28.782V22.1864L15.4165 22.8299L24.8541 27.4146Z" fill="url(#paint2_linear)"/>
<path fill-rule="evenodd" clip-rule="evenodd" d="M28.9192 40.1241L28.9058 27.4144L28.9326 27.4014L28.9326 27.3875L53.6794 15.3492C53.6794 15.3533 53.6795 15.3574 53.6795 15.3615L53.7598 15.3225V38.8628C53.7598 39.6135 53.3308 40.3106 52.6606 40.6592L28.9326 52.8583L28.9325 52.8176L28.9058 52.8314L28.9192 40.1241Z" fill="url(#paint3_linear)"/>
<defs>
<linearGradient id="paint0_linear" x1="36.0343" y1="0" x2="29.1526" y2="24.2359" gradientUnits="userSpaceOnUse">
<stop stop-color="#F15000"/>
<stop offset="1" stop-color="#F18E00"/>
</linearGradient>
<linearGradient id="paint1_linear" x1="51.6116" y1="6.47485" x2="44.2514" y2="32.0088" gradientUnits="userSpaceOnUse">
<stop stop-color="#F15000"/>
<stop offset="1" stop-color="#F18E00"/>
</linearGradient>
<linearGradient id="paint2_linear" x1="24.8541" y1="15.3228" x2="-4.65307" y2="48.7513" gradientUnits="userSpaceOnUse">
<stop stop-color="#F15000"/>
<stop offset="1" stop-color="#F18E00"/>
</linearGradient>
<linearGradient id="paint3_linear" x1="53.7598" y1="15.3225" x2="24.2527" y2="48.7511" gradientUnits="userSpaceOnUse">
<stop stop-color="#F15000"/>
<stop offset="1" stop-color="#F18E00"/>
</linearGradient>
</defs>
</svg>
