<svg width="28" height="17" viewBox="0 0 28 17" fill="none" xmlns="http://www.w3.org/2000/svg">
<path d="M26.4213 6.09892H25.9657V4.35282C25.9657 3.63081 25.3525 3.04324 24.5991 3.04324H23.6879C23.5276 3.04324 23.3754 3.07465 23.2324 3.12355V1.73366C23.2324 1.01165 22.6192 0.424072 21.8657 0.424072H20.9546C20.2011 0.424072 19.5879 1.01165 19.5879 1.73366V6.09892H8.65459V1.73366C8.65459 1.01165 8.0414 0.424072 7.28792 0.424072H6.37679C5.62331 0.424072 5.01013 1.01165 5.01013 1.73366V3.12355C4.86711 3.07465 4.71491 3.04324 4.55459 3.04324H3.64346C2.88998 3.04324 2.27679 3.63081 2.27679 4.35282V6.09892H1.82126C1.06777 6.09892 0.45459 6.68649 0.45459 7.4085V9.1546C0.45459 9.87661 1.06777 10.4642 1.82126 10.4642H2.27679V12.6468C2.27679 13.3688 2.88998 13.9564 3.64346 13.9564H4.55459C4.71496 13.9564 4.86711 13.925 5.01013 13.8761V15.266C5.01013 15.988 5.62331 16.5756 6.37679 16.5756H7.28792C8.0414 16.5756 8.65459 15.988 8.65459 15.266V10.4642H19.5879V15.266C19.5879 15.988 20.2011 16.5756 20.9546 16.5756H21.8657C22.6192 16.5756 23.2324 15.988 23.2324 15.266V13.8761C23.3754 13.925 23.5276 13.9564 23.6879 13.9564H24.5991C25.3525 13.9564 25.9657 13.3688 25.9657 12.6468V10.4642H26.4213C27.1747 10.4642 27.7879 9.87661 27.7879 9.1546V7.4085C27.7879 6.68649 27.1747 6.09892 26.4213 6.09892ZM2.27679 9.59111H1.82126C1.56981 9.59111 1.36572 9.39554 1.36572 9.1546V7.4085C1.36572 7.16756 1.56981 6.97199 1.82126 6.97199H2.27679V9.59111ZM5.01013 12.6468C5.01013 12.8878 4.80604 13.0833 4.55459 13.0833H3.64346C3.39202 13.0833 3.18792 12.8878 3.18792 12.6468V10.0277V6.53543V4.35277C3.18792 4.11183 3.39202 3.91626 3.64346 3.91626H4.55459C4.80604 3.91626 5.01013 4.11183 5.01013 4.35277V12.6468ZM7.74346 15.266C7.74346 15.5069 7.53937 15.7025 7.28792 15.7025H6.37679C6.12535 15.7025 5.92126 15.5069 5.92126 15.266V12.6468V4.35277V1.7336C5.92126 1.49266 6.12535 1.29709 6.37679 1.29709H7.28792C7.53937 1.29709 7.74346 1.49266 7.74346 1.7336V15.266ZM19.5879 9.59111H8.65459V6.97194H19.5879V9.59111ZM22.3213 4.35277V12.6468V15.266C22.3213 15.5069 22.1172 15.7025 21.8657 15.7025H20.9546C20.7031 15.7025 20.4991 15.5069 20.4991 15.266V1.7336C20.4991 1.49266 20.7031 1.29709 20.9546 1.29709H21.8657C22.1172 1.29709 22.3213 1.49266 22.3213 1.7336V4.35277ZM25.0546 6.53543V10.0277V12.6468C25.0546 12.8878 24.8505 13.0833 24.5991 13.0833H23.6879C23.4365 13.0833 23.2324 12.8878 23.2324 12.6468V4.35277C23.2324 4.11183 23.4365 3.91626 23.6879 3.91626H24.5991C24.8505 3.91626 25.0546 4.11183 25.0546 4.35277V6.53543ZM26.8768 9.1546C26.8768 9.39554 26.6727 9.59111 26.4213 9.59111H25.9657V6.97194H26.4213C26.6727 6.97194 26.8768 7.16751 26.8768 7.40845V9.1546Z" fill="url(#paint0_linear)"/>
<defs>
<linearGradient id="paint0_linear" x1="27.7879" y1="0.424072" x2="19.8913" y2="23.2884" gradientUnits="userSpaceOnUse">
<stop stop-color="#F15000"/>
<stop offset="1" stop-color="#F18E00"/>
</linearGradient>
</defs>
</svg>
