<svg width="24" height="22" viewBox="0 0 24 22" fill="none" xmlns="http://www.w3.org/2000/svg">
<path d="M19.4907 21.9096H4.25083C3.11394 21.9096 2.18896 20.9847 2.18896 19.8478V8.99964C2.18896 8.60358 2.51003 8.28247 2.90614 8.28247C3.30224 8.28247 3.62331 8.60358 3.62331 8.99964V19.8478C3.62331 20.1938 3.9048 20.4753 4.25083 20.4753H19.4907C19.8368 20.4753 20.1182 20.1938 20.1182 19.8478V8.99964C20.1182 8.60358 20.4393 8.28247 20.8354 8.28247C21.2315 8.28247 21.5526 8.60358 21.5526 8.99964V19.8478C21.5526 20.9846 20.6277 21.9096 19.4907 21.9096Z" fill="url(#paint0_linear)"/>
<path d="M22.6283 11.5093C22.4447 11.5093 22.2612 11.4392 22.1212 11.2992L13.2019 2.37994C12.4679 1.64592 11.2736 1.64592 10.5396 2.37994L1.62029 11.2992C1.34023 11.5793 0.886127 11.5793 0.606071 11.2992C0.325971 11.0192 0.325971 10.5651 0.606071 10.285L9.52535 1.36568C10.8186 0.0724423 12.9229 0.0724423 14.2161 1.36568L23.1354 10.285C23.4155 10.5651 23.4155 11.0191 23.1354 11.2992C22.9954 11.4392 22.8118 11.5093 22.6283 11.5093Z" fill="url(#paint1_linear)"/>
<path d="M14.7392 21.9099H9.00184C8.60574 21.9099 8.28467 21.5888 8.28467 21.1927V14.8278C8.28467 13.5921 9.29005 12.5867 10.5258 12.5867H13.2152C14.451 12.5867 15.4564 13.5921 15.4564 14.8278V21.1927C15.4564 21.5888 15.1353 21.9099 14.7392 21.9099ZM9.71901 20.4756H14.022V14.8278C14.022 14.383 13.6601 14.021 13.2152 14.021H10.5258C10.081 14.021 9.71901 14.383 9.71901 14.8278V20.4756Z" fill="url(#paint2_linear)"/>
<defs>
<linearGradient id="paint0_linear" x1="21.5526" y1="8.28247" x2="13.9566" y2="26.7499" gradientUnits="userSpaceOnUse">
<stop stop-color="#F15000"/>
<stop offset="1" stop-color="#F18E00"/>
</linearGradient>
<linearGradient id="paint1_linear" x1="23.3455" y1="0.395752" x2="18.7311" y2="16.6988" gradientUnits="userSpaceOnUse">
<stop stop-color="#F15000"/>
<stop offset="1" stop-color="#F18E00"/>
</linearGradient>
<linearGradient id="paint2_linear" x1="15.4564" y1="12.5867" x2="8.34036" y2="21.9522" gradientUnits="userSpaceOnUse">
<stop stop-color="#F15000"/>
<stop offset="1" stop-color="#F18E00"/>
</linearGradient>
</defs>
</svg>
